# xmcd
#
# Track frame offsets: 
#        150
#        12353
#        23867
#        34563
#        48966
#        60582
#        72913
#        89588
#        110414
#        123038
#        135122
#        152408
#        165191
#        177539
#
# Disc length: 2621 seconds
#
# Revision: 3
# Processed by: cddbd v1.5.2PL0 Copyright (c) Steve Scherf et al.
# Submitted via: ExactAudioCopyFreeDBPlugin 1.0
#
DISCID=a20a3b0e
DTITLE=Various Artist - Country Love Songs CD1
DYEAR=2012
DGENRE=Country
TTITLE0=Lynn Anderson - Stand by your man
TTITLE1=Willie Nelson - Is there something on your mind
TTITLE2=Billie Jo Spears - I'm so lonely I could cry
TTITLE3=Roy Allen - Wichita Lineman
TTITLE4=Dolly Parton - Letter to heaven
TTITLE5=Patsy Cline - Crazy
TTITLE6=David Houston - For the good times
TTITLE7=Tanya Tucker - Baby I'm yours
TTITLE8=Julie Brandt - D.I.V.O.R.C.E
TTITLE9=Linda Buxton - Blue Kentucky girl
TTITLE10=T. Gozney Thornton - Strawberry stallion
TTITLE11=California - Tequila sunrise
TTITLE12=Donovan - Colours
TTITLE13=Mickey Newbury - Wish I was
EXTD=
EXTT0=
EXTT1=
EXTT2=
EXTT3=
EXTT4=
EXTT5=
EXTT6=
EXTT7=
EXTT8=
EXTT9=
EXTT10=
EXTT11=
EXTT12=
EXTT13=
PLAYORDER=
